<?xml version="1.0" encoding="UTF-8"?>
<svg width="504px" height="400px" viewBox="0 0 504 400" version="1.1" xmlns="http://www.w3.org/2000/svg" xmlns:xlink="http://www.w3.org/1999/xlink">
    <title>J</title>
    <g id="Page-1" stroke="none" stroke-width="1" fill="none" fill-rule="evenodd">
        <path d="M43.842243,399.76 C44.0555763,399.76 44.4289097,399.653333 44.962243,399.44 C45.4955763,399.226667 45.9755763,399.12 46.402243,399.12 C46.6155763,399.12 46.9355763,399.173333 47.362243,399.28 C47.7889097,399.386667 48.1089097,399.44 48.322243,399.44 C48.962243,399.44 49.922243,399.226667 51.202243,398.8 C52.9089097,399.226667 54.1889097,399.44 55.042243,399.44 C59.9489097,399.44 69.3355763,397.306667 83.202243,393.04 C97.0689097,388.773333 104.10891,385.04 104.322243,381.84 C104.535576,381.84 104.802243,382.053333 105.122243,382.48 C105.442243,382.906667 105.815576,383.12 106.242243,383.12 C107.30891,383.12 108.962243,382.266667 111.202243,380.56 C113.442243,378.853333 115.095576,377.893333 116.162243,377.68 C122.34891,374.693333 130.615576,369.786667 140.962243,362.96 C151.30891,356.133333 157.54891,352.08 159.682243,350.8 C165.442243,347.173333 170.775576,342.906667 175.682243,338 C179.522243,336.08 181.442243,334.586667 181.442243,333.52 C180.58891,333.093333 180.162243,332.773333 180.162243,332.56 C180.162243,332.133333 180.375576,331.92 180.802243,331.92 C181.86891,331.92 183.042243,331.706667 184.322243,331.28 C185.602243,330.426667 187.46891,328.56 189.922243,325.68 C192.375576,322.8 194.34891,320.933333 195.842243,320.08 C199.042243,317.946667 203.415576,314.266667 208.962243,309.04 C214.50891,303.813333 217.602243,300.88 218.242243,300.24 C218.66891,299.813333 219.202243,299.013333 219.842243,297.84 C220.482243,296.666667 221.015576,295.973333 221.442243,295.76 L221.442243,295.76 L224.002243,294.48 C223.78891,294.053333 223.682243,293.733333 223.682243,293.52 C223.682243,293.093333 224.58891,292.026667 226.402243,290.32 C228.215576,288.613333 230.18891,286.8 232.322243,284.88 C234.455576,282.96 235.62891,281.893333 235.842243,281.68 C236.055576,281.466667 236.10891,281.04 236.002243,280.4 C235.895576,279.76 235.94891,279.44 236.162243,279.44 C237.015576,278.373333 238.775576,276.72 241.442243,274.48 C244.10891,272.24 245.975576,270.266667 247.042243,268.56 C247.255576,268.133333 247.78891,267.493333 248.642243,266.64 L248.642243,266.64 L252.162243,263.12 L252.162243,261.84 L253.762243,260.24 C253.975576,259.6 254.50891,259.066667 255.362243,258.64 C256.215576,257.786667 257.122243,256.613333 258.082243,255.12 C259.042243,253.626667 259.842243,252.453333 260.482243,251.6 C260.695576,251.173333 261.122243,250.96 261.762243,250.96 C262.402243,250.96 262.82891,250.746667 263.042243,250.32 C263.421019,249.814966 264.397589,248.301152 265.971956,245.778559 L266.306216,245.242249 C267.334588,243.590137 268.593263,241.549388 270.082243,239.12 C274.135576,232.506667 277.442243,228.026667 280.002243,225.68 C280.002243,225.466667 279.94891,225.146667 279.842243,224.72 C279.735576,224.293333 279.682243,223.973333 279.682243,223.76 C279.682243,223.12 280.215576,222.746667 281.282243,222.64 C282.34891,222.533333 282.882243,222.16 282.882243,221.52 C282.882243,221.093333 282.775576,220.88 282.562243,220.88 C282.135576,220.88 281.815576,220.773333 281.602243,220.56 L281.602243,220.56 L281.602243,219.92 C281.602243,219.28 281.815576,218.96 282.242243,218.96 C282.455576,218.96 282.66891,219.173333 282.882243,219.6 L282.882243,219.6 L283.202243,219.92 C283.415576,219.92 285.70891,216.346667 290.082243,209.2 C294.455576,202.053333 297.602243,198.48 299.522243,198.48 L299.522243,198.48 L300.482243,198.48 C300.482243,198.693333 301.015576,198.8 302.082243,198.8 C302.935576,198.8 303.46891,198.693333 303.682243,198.48 C306.242243,197.84 307.842243,197.52 308.482243,197.52 C308.695576,197.52 309.015576,197.573333 309.442243,197.68 C309.86891,197.786667 310.18891,197.84 310.402243,197.84 C310.82891,197.84 311.362243,197.733333 312.002243,197.52 C312.642243,197.306667 313.06891,197.2 313.282243,197.2 L313.282243,197.2 L313.922243,197.2 L316.162243,197.52 C316.162243,197.733333 316.482243,197.733333 317.122243,197.52 L317.122243,197.52 L326.402243,197.52 C326.82891,197.946667 327.255576,198.16 327.682243,198.16 C328.10891,198.16 328.535576,198.053333 328.962243,197.84 C329.38891,197.626667 329.70891,197.52 329.922243,197.52 C330.135576,197.52 330.455576,197.573333 330.882243,197.68 C331.30891,197.786667 331.735576,197.84 332.162243,197.84 C332.802243,197.84 333.70891,197.626667 334.882243,197.2 C336.055576,196.773333 336.962243,196.56 337.602243,196.56 C338.242243,196.56 338.98891,196.666667 339.842243,196.88 C340.695576,197.093333 341.335576,197.2 341.762243,197.2 C342.402243,197.2 343.255576,196.88 344.322243,196.24 C345.38891,195.6 346.135576,195.28 346.562243,195.28 C346.98891,195.28 347.415576,195.44 347.842243,195.76 C348.26891,196.08 348.58891,196.24 348.802243,196.24 L348.802243,196.24 L349.442243,195.92 L350.082243,195.92 C350.50891,195.92 351.095576,196.026667 351.842243,196.24 C352.58891,196.453333 353.06891,196.56 353.282243,196.56 C353.70891,196.56 354.135576,196.346667 354.562243,195.92 C354.98891,195.493333 355.30891,195.28 355.522243,195.28 C355.735576,195.28 356.055576,195.493333 356.482243,195.92 C356.90891,196.133333 357.335576,196.24 357.762243,196.24 C358.18891,196.24 358.615576,196.08 359.042243,195.76 C359.46891,195.44 359.895576,195.28 360.322243,195.28 C361.175576,195.28 361.70891,195.333333 361.922243,195.44 C362.135576,195.546667 362.455576,195.6 362.882243,195.6 L362.882243,195.6 L364.802243,195.6 C365.22891,196.026667 365.655576,196.24 366.082243,196.24 L366.082243,196.24 L367.042243,195.92 C367.682243,195.706667 368.322243,195.44 368.962243,195.12 C369.602243,194.8 370.02891,194.64 370.242243,194.64 L370.242243,194.64 L372.802243,194.64 C373.015576,194.64 373.282243,194.746667 373.602243,194.96 C373.922243,195.173333 374.18891,195.28 374.402243,195.28 C374.82891,195.28 375.415576,195.226667 376.162243,195.12 C376.90891,195.013333 377.495576,194.96 377.922243,194.96 L377.922243,194.96 L378.242243,194.32 C378.66891,193.68 378.98891,193.36 379.202243,193.36 C379.842243,193.36 380.26891,193.573333 380.482243,194 C380.695576,194.426667 380.90891,194.64 381.122243,194.64 C381.762243,194.853333 382.402243,194.96 383.042243,194.96 C383.682243,194.96 384.26891,194.64 384.802243,194 C385.335576,193.36 385.815576,193.04 386.242243,193.04 C386.455576,193.04 386.882243,193.146667 387.522243,193.36 C388.162243,193.573333 388.695576,193.68 389.122243,193.68 C389.975576,193.68 390.98891,193.146667 392.162243,192.08 C393.335576,191.013333 393.922243,190.053333 393.922243,189.2 C393.70891,188.346667 392.535576,187.92 390.402243,187.92 L390.402243,187.92 L389.442243,187.92 C389.22891,187.92 388.802243,187.706667 388.162243,187.28 C387.522243,186.853333 387.095576,186.64 386.882243,186.64 C386.242243,186.64 384.90891,187.173333 382.882243,188.24 C380.855576,189.306667 379.30891,189.84 378.242243,189.84 C376.962243,189.84 376.322243,189.626667 376.322243,189.2 L376.322243,189.2 L375.682243,189.52 L375.042243,189.52 C374.82891,189.52 374.562243,189.413333 374.242243,189.2 C373.922243,188.986667 373.655576,188.88 373.442243,188.88 C373.22891,188.88 372.90891,188.986667 372.482243,189.2 C372.055576,189.413333 371.735576,189.52 371.522243,189.52 C371.095576,189.52 370.66891,189.413333 370.242243,189.2 L370.242243,189.2 L368.962243,189.2 C368.74891,189.2 368.322243,189.306667 367.682243,189.52 C367.042243,189.733333 366.50891,189.84 366.082243,189.84 C365.86891,189.84 365.602243,189.786667 365.282243,189.68 C364.962243,189.573333 364.695576,189.52 364.482243,189.52 C363.842243,190.16 363.415576,190.48 363.202243,190.48 C362.98891,190.48 362.18891,190.32 360.802243,190 C359.415576,189.68 358.402243,189.52 357.762243,189.52 C357.54891,189.52 357.22891,189.733333 356.802243,190.16 C356.375576,190.586667 356.055576,190.8 355.842243,190.8 C355.62891,190.8 355.30891,190.693333 354.882243,190.48 C354.455576,190.266667 354.135576,190.16 353.922243,190.16 C353.70891,190.16 353.38891,190.266667 352.962243,190.48 C352.535576,190.693333 352.10891,190.8 351.682243,190.8 C351.042243,190.8 350.135576,190.64 348.962243,190.32 C347.78891,190 346.882243,189.84 346.242243,189.84 L346.242243,189.84 L344.642243,189.84 C343.14891,190.48 340.90891,190.8 337.922243,190.8 C337.495576,190.8 336.90891,190.746667 336.162243,190.64 C335.415576,190.533333 334.82891,190.48 334.402243,190.48 C334.18891,190.48 333.655576,190.586667 332.802243,190.8 C331.94891,191.013333 331.415576,191.12 331.202243,191.12 C330.98891,191.12 330.722243,191.013333 330.402243,190.8 C330.082243,190.586667 329.815576,190.48 329.602243,190.48 C328.962243,190.48 328.002243,190.64 326.722243,190.96 C325.442243,191.28 324.482243,191.44 323.842243,191.44 L323.842243,191.44 L319.362243,191.44 C319.14891,191.44 318.82891,191.386667 318.402243,191.28 C317.975576,191.173333 317.655576,191.12 317.442243,191.12 L317.442243,191.12 L316.802243,191.12 C316.58891,191.12 316.375576,191.226667 316.162243,191.44 L316.162243,191.44 L315.522243,191.76 C315.30891,191.76 314.98891,191.6 314.562243,191.28 C314.135576,190.96 313.815576,190.8 313.602243,190.8 C313.38891,191.013333 312.962243,191.12 312.322243,191.12 C312.10891,191.333333 311.575576,191.44 310.722243,191.44 C310.295576,191.44 309.655576,191.333333 308.802243,191.12 C307.94891,190.906667 307.30891,190.8 306.882243,190.8 C306.242243,190.8 305.282243,191.013333 304.002243,191.44 C302.722243,191.866667 301.762243,192.08 301.122243,192.08 C300.695576,192.08 300.482243,191.866667 300.482243,191.44 C300.482243,190.16 302.882243,186.266667 307.682243,179.76 C312.482243,173.253333 314.882243,169.146667 314.882243,167.44 L314.882243,167.44 L314.562243,166.8 C314.562243,166.373333 315.042243,165.893333 316.002243,165.36 C316.962243,164.826667 317.442243,164.346667 317.442243,163.92 L317.442243,163.92 L317.442243,162.32 C318.722243,161.04 320.002243,158.693333 321.282243,155.28 C321.282243,155.066667 320.962243,154.853333 320.322243,154.64 C319.682243,154.426667 319.362243,154.213333 319.362243,154 L319.362243,154 L320.322243,153.68 C320.962243,153.253333 321.602243,152.773333 322.242243,152.24 C322.882243,151.706667 323.202243,151.12 323.202243,150.48 C323.415576,148.986667 324.962243,146.213333 327.842243,142.16 C330.722243,138.106667 332.162243,135.333333 332.162243,133.84 L332.162243,133.84 L331.842243,132.88 L332.162243,132.24 C332.375576,131.813333 332.482243,131.493333 332.482243,131.28 L332.482243,131.28 L332.162243,130.64 L332.162243,130.64 L332.162243,130.32 C332.162243,129.68 332.482243,129.36 333.122243,129.36 C333.335576,129.36 333.602243,129.466667 333.922243,129.68 C334.242243,129.893333 334.50891,130 334.722243,130 L334.722243,130 L335.362243,127.76 C336.002243,126.266667 336.90891,124.72 338.082243,123.12 C339.255576,121.52 340.58891,120.613333 342.082243,120.4 C342.935576,120.4 343.682243,120.24 344.322243,119.92 C344.962243,119.6 345.655576,119.226667 346.402243,118.8 C347.14891,118.373333 347.842243,118.053333 348.482243,117.84 C350.18891,117.84 353.70891,116.88 359.042243,114.96 C359.46891,114.96 359.94891,115.066667 360.482243,115.28 C361.015576,115.493333 361.38891,115.6 361.602243,115.6 C363.94891,115.6 365.655576,114.853333 366.722243,113.36 L366.722243,113.36 L367.362243,113.36 C367.575576,114 367.895576,114.32 368.322243,114.32 C368.962243,114.32 370.02891,113.946667 371.522243,113.2 C373.015576,112.453333 374.18891,112.08 375.042243,112.08 L375.042243,112.08 L375.682243,112.08 C376.10891,112.293333 376.42891,112.4 376.642243,112.4 L376.642243,112.4 L377.922243,111.44 L379.842243,111.44 C380.055576,111.44 380.375576,111.066667 380.802243,110.32 C381.22891,109.573333 381.655576,109.2 382.082243,109.2 C382.082243,109.413333 382.02891,109.68 381.922243,110 C381.815576,110.32 381.762243,110.586667 381.762243,110.8 C383.895576,110.8 387.255576,110.053333 391.842243,108.56 C396.42891,107.066667 399.895576,106.32 402.242243,106.32 L402.242243,106.32 L402.882243,106.32 C403.095576,106.32 403.202243,106.106667 403.202243,105.68 C403.415576,105.253333 403.62891,104.933333 403.842243,104.72 C404.695576,104.933333 405.655576,104.773333 406.722243,104.24 C407.78891,103.706667 408.642243,103.44 409.282243,103.44 C409.922243,103.44 410.775576,103.6 411.842243,103.92 C412.90891,104.24 413.655576,104.4 414.082243,104.4 C414.295576,104.186667 414.82891,103.813333 415.682243,103.28 C416.535576,102.746667 417.335576,102.266667 418.082243,101.84 C418.82891,101.413333 419.415576,101.2 419.842243,101.2 C420.055576,101.2 420.322243,101.253333 420.642243,101.36 C420.962243,101.466667 421.22891,101.52 421.442243,101.52 C421.86891,101.52 422.295576,101.413333 422.722243,101.2 L422.722243,101.2 L425.922243,101.2 C426.135576,100.986667 428.642243,99.8133333 433.442243,97.68 C438.242243,95.5466667 440.962243,94.48 441.602243,94.48 C442.02891,94.48 442.402243,94.9066667 442.722243,95.76 C443.042243,96.6133333 443.30891,97.04 443.522243,97.04 C444.162243,97.04 445.122243,96.72 446.402243,96.08 C447.682243,95.44 448.74891,95.12 449.602243,95.12 L449.602243,95.12 L457.282243,92.24 C458.775576,91.8133333 461.122243,91.12 464.322243,90.16 C467.522243,89.2 470.082243,88.2933333 472.002243,87.44 C472.215576,87.44 472.42891,87.3333333 472.642243,87.12 C472.855576,86.9066667 473.06891,86.8 473.282243,86.8 L473.282243,86.8 L476.162243,86.8 C477.442243,86.8 480.482243,85.4133333 485.282243,82.64 C488.187506,80.9614035 490.369851,79.7517267 491.829279,79.0109695 L492.1936,78.8283657 C492.947432,78.455771 493.470313,78.2329825 493.762243,78.16 C495.255576,76.4533333 496.855576,75.28 498.562243,74.64 C498.775576,74.4266667 498.935576,74.16 499.042243,73.84 C499.14891,73.52 499.202243,73.2533333 499.202243,73.04 C501.975576,70.2666667 503.362243,68.24 503.362243,66.96 C503.362243,63.12 494.722243,58.8533333 477.442243,54.16 C477.015576,54.16 476.58891,54.2133333 476.162243,54.32 C475.735576,54.4266667 475.415576,54.48 475.202243,54.48 C474.98891,54.48 474.242243,54.2666667 472.962243,53.84 L472.962243,53.84 L470.082243,53.84 C469.655576,53.84 469.015576,53.5733333 468.162243,53.04 C467.30891,52.5066667 466.562243,52.24 465.922243,52.24 C465.495576,52.24 464.962243,52.4 464.322243,52.72 C463.682243,53.04 463.255576,53.2 463.042243,53.2 C461.335576,53.2 458.562243,52.5066667 454.722243,51.12 C450.882243,49.7333333 448.10891,49.04 446.402243,49.04 C445.975576,49.04 445.38891,49.1466667 444.642243,49.36 C443.895576,49.5733333 443.30891,49.68 442.882243,49.68 C441.815576,49.68 440.26891,49.36 438.242243,48.72 C436.215576,48.08 434.66891,47.76 433.602243,47.76 C433.38891,47.76 433.015576,47.8666667 432.482243,48.08 C431.94891,48.2933333 431.46891,48.4 431.042243,48.4 C430.615576,48.4 430.082243,48.1333333 429.442243,47.6 C428.802243,47.0666667 428.162243,46.8 427.522243,46.8 L427.522243,46.8 L426.882243,47.12 C426.882243,47.3333333 426.775576,47.44 426.562243,47.44 C425.922243,47.44 424.90891,47.3333333 423.522243,47.12 C422.135576,46.9066667 421.015576,46.8 420.162243,46.8 C419.735576,46.8 419.14891,46.8533333 418.402243,46.96 C417.655576,47.0666667 417.06891,47.12 416.642243,47.12 C416.42891,47.12 416.10891,47.0133333 415.682243,46.8 C415.255576,46.5866667 414.935576,46.48 414.722243,46.48 C414.50891,46.48 414.18891,46.5333333 413.762243,46.64 C413.335576,46.7466667 413.015576,46.8 412.802243,46.8 C412.58891,46.8 412.10891,46.6933333 411.362243,46.48 C410.615576,46.2666667 410.02891,46.16 409.602243,46.16 C409.175576,46.16 408.322243,46.2666667 407.042243,46.48 C405.762243,46.6933333 404.90891,46.8 404.482243,46.8 C404.055576,46.8 403.62891,46.6933333 403.202243,46.48 C402.775576,46.2666667 402.455576,46.16 402.242243,46.16 C402.02891,46.16 401.70891,46.2133333 401.282243,46.32 C400.855576,46.4266667 400.535576,46.48 400.322243,46.48 C400.10891,46.48 399.78891,46.3733333 399.362243,46.16 L399.362243,46.16 L398.402243,46.48 L392.002243,46.48 C391.362243,46.48 390.34891,46.2666667 388.962243,45.84 C387.575576,45.4133333 386.562243,45.2 385.922243,45.2 C385.495576,45.2 385.06891,45.36 384.642243,45.68 C384.215576,46 383.78891,46.16 383.362243,46.16 L383.362243,46.16 L379.202243,46.16 C378.98891,45.9466667 378.66891,45.84 378.242243,45.84 C378.02891,45.84 377.762243,45.8933333 377.442243,46 C377.122243,46.1066667 376.855576,46.16 376.642243,46.16 C375.575576,46.16 375.042243,45.6266667 375.042243,44.56 C375.042243,44.3466667 375.255576,44.1333333 375.682243,43.92 C376.10891,43.7066667 376.322243,43.4933333 376.322243,43.28 C376.322243,42.4266667 376.855576,41.2533333 377.922243,39.76 C378.98891,38.2666667 379.522243,36.9866667 379.522243,35.92 L379.522243,35.92 L381.122243,33.68 L381.122243,32.08 C381.122243,31.0133333 382.135576,28.6133333 384.162243,24.88 C386.18891,21.1466667 387.30891,18.4266667 387.522243,16.72 L387.522243,16.72 L387.522243,16.08 C388.802243,15.44 389.442243,14.5866667 389.442243,13.52 C389.442243,11.1733333 390.082243,8.82666667 391.362243,6.48 L391.362243,6.48 L391.362243,5.2 C391.362243,3.49333333 391.042243,2.26666667 390.402243,1.52 C389.762243,0.773333333 389.015576,0.346666667 388.162243,0.24 C387.30891,0.133333333 386.02891,0.08 384.322243,0.08 C382.82891,1.14666667 381.015576,4.45333333 378.882243,10 C376.74891,15.5466667 375.46891,19.7066667 375.042243,22.48 C373.54891,24.6133333 372.802243,26.8533333 372.802243,29.2 C372.58891,29.6266667 371.895576,30.9066667 370.722243,33.04 C369.54891,35.1733333 368.962243,36.7733333 368.962243,37.84 C368.962243,38.48 369.06891,38.8 369.282243,38.8 C369.06891,39.0133333 368.962243,39.2266667 368.962243,39.44 C367.682243,41.1466667 366.18891,43.0666667 364.482243,45.2 C364.26891,45.4133333 364.055576,45.52 363.842243,45.52 C363.415576,45.52 363.042243,45.4133333 362.722243,45.2 C362.402243,44.9866667 362.135576,44.88 361.922243,44.88 C360.855576,44.88 359.522243,45.1466667 357.922243,45.68 C356.322243,46.2133333 355.095576,46.48 354.242243,46.48 C353.602243,46.48 352.642243,46.32 351.362243,46 C350.082243,45.68 349.015576,45.52 348.162243,45.52 L348.162243,45.52 L344.002243,45.52 C344.002243,45.7333333 343.78891,45.84 343.362243,45.84 C343.14891,45.84 342.722243,45.7333333 342.082243,45.52 C341.442243,45.3066667 340.90891,45.2 340.482243,45.2 C340.055576,45.2 339.735576,45.3066667 339.522243,45.52 L339.522243,45.52 L331.842243,45.52 C330.98891,45.9466667 330.455576,46.16 330.242243,46.16 C329.815576,46.16 329.38891,46.0533333 328.962243,45.84 C328.535576,45.6266667 328.10891,45.52 327.682243,45.52 C327.255576,45.52 326.402243,45.68 325.122243,46 C323.842243,46.32 322.98891,46.48 322.562243,46.48 C321.922243,46.48 321.015576,46.32 319.842243,46 C318.66891,45.68 317.762243,45.52 317.122243,45.52 C316.90891,45.52 316.642243,45.68 316.322243,46 C316.002243,46.32 315.735576,46.48 315.522243,46.48 L315.522243,46.48 L312.002243,46.48 C311.575576,46.48 311.095576,46.4266667 310.562243,46.32 C310.02891,46.2133333 309.655576,46.16 309.442243,46.16 C308.58891,46.16 307.362243,46.3733333 305.762243,46.8 C304.162243,47.2266667 303.042243,47.44 302.402243,47.44 C301.975576,47.44 301.38891,47.3333333 300.642243,47.12 C299.895576,46.9066667 299.30891,46.8 298.882243,46.8 L298.882243,46.8 L297.602243,46.8 C296.74891,47.2266667 292.802243,47.76 285.762243,48.4 C285.54891,48.6133333 285.22891,48.56 284.802243,48.24 C284.375576,47.92 284.055576,47.76 283.842243,47.76 C282.562243,47.76 280.855576,48.2933333 278.722243,49.36 L278.722243,49.36 L275.202243,49.36 C274.98891,49.5733333 274.775576,49.68 274.562243,49.68 C274.34891,49.68 273.86891,49.6266667 273.122243,49.52 C272.375576,49.4133333 271.78891,49.36 271.362243,49.36 C270.082243,49.36 268.162243,49.5733333 265.602243,50 C263.042243,50.4266667 261.122243,50.64 259.842243,50.64 L259.842243,50.64 L258.562243,50.64 C258.135576,50.8533333 257.70891,50.96 257.282243,50.96 C256.002243,51.3866667 254.082243,51.6 251.522243,51.6 C250.455576,51.6 249.815576,51.4933333 249.602243,51.28 C249.38891,51.28 248.90891,51.4933333 248.162243,51.92 C247.415576,52.3466667 246.82891,52.56 246.402243,52.56 C246.18891,52.56 245.922243,52.5066667 245.602243,52.4 C245.282243,52.2933333 245.015576,52.24 244.802243,52.24 C244.162243,52.24 243.202243,52.4533333 241.922243,52.88 C240.642243,53.3066667 239.78891,53.52 239.362243,53.52 L239.362243,53.52 L236.482243,53.52 C236.26891,53.52 236.002243,53.4666667 235.682243,53.36 C235.362243,53.2533333 235.095576,53.2 234.882243,53.2 C234.455576,53.2 233.70891,53.36 232.642243,53.68 C231.575576,54 230.722243,54.16 230.082243,54.16 L230.082243,54.16 L226.562243,54.16 C226.135576,54.16 225.655576,54 225.122243,53.68 C224.58891,53.36 224.215576,53.2 224.002243,53.2 C223.575576,53.4133333 223.255576,53.7333333 223.042243,54.16 C222.82891,54.5866667 222.615576,54.8 222.402243,54.8 C222.18891,54.8 221.86891,54.6933333 221.442243,54.48 L221.442243,54.48 L221.122243,54.48 C220.055576,54.48 218.562243,54.7466667 216.642243,55.28 C214.722243,55.8133333 213.335576,56.08 212.482243,56.08 C211.62891,56.08 211.095576,55.9733333 210.882243,55.76 C210.66891,55.76 210.455576,55.5466667 210.242243,55.12 L210.242243,55.12 L209.922243,54.8 C209.70891,54.8 209.175576,55.12 208.322243,55.76 C207.46891,56.4 206.722243,56.72 206.082243,56.72 C205.442243,56.72 204.695576,56.5066667 203.842243,56.08 C203.202243,55.8666667 202.242243,56.24 200.962243,57.2 C199.682243,58.16 198.722243,58.64 198.082243,58.64 L198.082243,58.64 L197.762243,58.32 C197.335576,58.1066667 197.015576,58 196.802243,58 C195.94891,58 194.455576,58.3733333 192.322243,59.12 C190.18891,59.8666667 188.58891,60.24 187.522243,60.24 C187.095576,60.24 186.66891,60.1333333 186.242243,59.92 C185.815576,59.7066667 185.38891,59.6 184.962243,59.6 C183.46891,59.6 181.175576,60.08 178.082243,61.04 C174.98891,62 172.58891,62.48 170.882243,62.48 L170.882243,62.48 L170.242243,62.48 C168.74891,63.5466667 166.615576,64.08 163.842243,64.08 C163.415576,64.08 162.98891,63.92 162.562243,63.6 C162.135576,63.28 161.815576,63.12 161.602243,63.12 C160.962243,63.12 160.215576,63.3333333 159.362243,63.76 C158.50891,64.1866667 157.86891,64.4 157.442243,64.4 L157.442243,64.4 L156.802243,64.08 L156.802243,64.08 L156.482243,64.08 C154.135576,64.08 152.002243,64.4 150.082243,65.04 L150.082243,65.04 L144.962243,65.04 C144.74891,65.04 144.375576,65.1466667 143.842243,65.36 C143.30891,65.5733333 142.935576,65.68 142.722243,65.68 C142.082243,65.68 141.175576,65.52 140.002243,65.2 C138.82891,64.88 138.02891,64.72 137.602243,64.72 L137.602243,64.72 L136.962243,64.72 C136.535576,64.9333333 135.94891,65.68 135.202243,66.96 C134.455576,68.24 134.082243,69.0933333 134.082243,69.52 C134.082243,71.2266667 135.362243,72.72 137.922243,74 C140.482243,75.28 142.722243,75.92 144.642243,75.92 C144.855576,75.92 145.175576,75.8666667 145.602243,75.76 C146.02891,75.6533333 146.455576,75.6 146.882243,75.6 L146.882243,75.6 L153.922243,77.52 C154.34891,77.52 155.362243,77.7333333 156.962243,78.16 C158.562243,78.5866667 159.895576,78.8 160.962243,78.8 C161.602243,78.8 162.50891,78.5333333 163.682243,78 C164.855576,77.4666667 165.655576,77.2 166.082243,77.2 L166.082243,77.2 L167.042243,77.2 C167.46891,77.4133333 167.46891,77.52 167.042243,77.52 L167.042243,77.52 L168.002243,77.52 C168.002243,76.4533333 167.46891,75.92 166.402243,75.92 C166.18891,75.92 165.86891,75.9733333 165.442243,76.08 C165.015576,76.1866667 164.695576,76.24 164.482243,76.24 C162.775576,76.24 161.922243,75.7066667 161.922243,74.64 C161.922243,74 162.935576,73.3066667 164.962243,72.56 C166.98891,71.8133333 168.215576,71.2266667 168.642243,70.8 C169.06891,70.8 169.86891,70.64 171.042243,70.32 C172.215576,70 173.122243,69.84 173.762243,69.84 L173.762243,69.84 L175.042243,69.84 C175.042243,70.0533333 175.895576,70.16 177.602243,70.16 C179.095576,70.16 179.94891,70.0533333 180.162243,69.84 L180.162243,69.84 L184.962243,68.88 L185.282243,68.88 L186.242243,67.28 L187.202243,66.96 C188.26891,66.96 189.442243,66.64 190.722243,66 C190.935576,66 191.362243,66.16 192.002243,66.48 C192.642243,66.8 193.175576,66.96 193.602243,66.96 C194.66891,66.96 196.482243,66.32 199.042243,65.04 C201.602243,63.76 203.30891,63.12 204.162243,63.12 C204.375576,63.12 204.642243,63.2266667 204.962243,63.44 C205.282243,63.6533333 205.54891,63.76 205.762243,63.76 C206.402243,63.76 207.14891,63.6 208.002243,63.28 C208.855576,62.96 209.602243,62.8 210.242243,62.8 C210.455576,62.8 210.66891,62.8533333 210.882243,62.96 C211.095576,63.0666667 211.30891,63.12 211.522243,63.12 C212.162243,63.12 213.06891,62.96 214.242243,62.64 C215.415576,62.32 216.215576,62.16 216.642243,62.16 L216.642243,62.16 L217.922243,62.48 C218.562243,62.48 219.575576,62.32 220.962243,62 C222.34891,61.68 223.46891,61.52 224.322243,61.52 C224.74891,61.52 225.442243,61.5733333 226.402243,61.68 C227.362243,61.7866667 228.162243,61.84 228.802243,61.84 C230.50891,61.84 231.46891,61.3066667 231.682243,60.24 C231.255576,60.24 231.042243,59.92 231.042243,59.28 L231.042243,59.28 L231.682243,58.96 C232.322243,58.7466667 232.855576,58.5333333 233.282243,58.32 L233.282243,58.32 L234.242243,58.32 L233.602243,58.96 C233.175576,59.3866667 232.962243,59.7066667 232.962243,59.92 C232.962243,60.56 234.02891,60.88 236.162243,60.88 C237.015576,60.88 237.922243,60.4 238.882243,59.44 C239.842243,58.48 240.642243,58 241.282243,58 C241.922243,58 242.562243,58.2133333 243.202243,58.64 C243.842243,59.0666667 244.26891,59.28 244.482243,59.28 C244.695576,59.4933333 245.442243,59.6 246.722243,59.6 L246.722243,59.6 L252.162243,59.6 C252.802243,59.6 254.18891,59.0666667 256.322243,58 L256.322243,58 L256.962243,58 C257.602243,58 258.34891,57.84 259.202243,57.52 C260.055576,57.2 260.695576,57.04 261.122243,57.04 C261.54891,57.04 262.082243,57.2 262.722243,57.52 C263.362243,57.84 263.895576,58 264.322243,58 C265.602243,58 267.255576,57.6266667 269.282243,56.88 C271.30891,56.1333333 272.855576,55.76 273.922243,55.76 C274.775576,55.76 275.842243,56.1866667 277.122243,57.04 L277.122243,57.04 L277.442243,57.04 C277.655576,56.8266667 278.402243,56.5066667 279.682243,56.08 C283.735576,56.08 286.615576,55.2266667 288.322243,53.52 C288.535576,53.52 288.74891,53.68 288.962243,54 C289.175576,54.32 289.38891,54.48 289.602243,54.48 L289.602243,54.48 L292.482243,54.48 C293.335576,54.0533333 293.86891,53.84 294.082243,53.84 C294.50891,53.84 295.095576,53.9466667 295.842243,54.16 C296.58891,54.3733333 297.175576,54.48 297.602243,54.48 C298.455576,54.48 299.522243,54.2666667 300.802243,53.84 C302.082243,53.4133333 303.042243,53.2 303.682243,53.2 C303.895576,53.2 304.162243,53.3066667 304.482243,53.52 C304.802243,53.7333333 305.06891,53.84 305.282243,53.84 C305.70891,53.84 306.135576,53.7333333 306.562243,53.52 C306.98891,53.3066667 307.415576,53.2 307.842243,53.2 C308.26891,53.2 308.695576,53.2533333 309.122243,53.36 C309.54891,53.4666667 309.86891,53.52 310.082243,53.52 C310.935576,53.52 311.682243,53.4133333 312.322243,53.2 L312.322243,53.2 L316.482243,53.2 C317.122243,53.4133333 318.082243,53.52 319.362243,53.52 L319.362243,53.52 L321.922243,53.52 L323.522243,53.2 L329.922243,53.2 C330.34891,53.4133333 330.775576,53.52 331.202243,53.52 C331.842243,53.52 333.22891,53.0933333 335.362243,52.24 C335.575576,52.24 335.842243,52.3466667 336.162243,52.56 C336.482243,52.7733333 336.74891,52.88 336.962243,52.88 C337.38891,52.88 337.922243,52.8266667 338.562243,52.72 C339.202243,52.6133333 339.842243,52.56 340.482243,52.56 C340.695576,52.56 340.962243,52.4 341.282243,52.08 C341.602243,51.76 341.86891,51.6 342.082243,51.6 C342.295576,51.6 342.722243,51.76 343.362243,52.08 C344.002243,52.4 344.42891,52.56 344.642243,52.56 C344.855576,52.56 345.122243,52.4533333 345.442243,52.24 C345.762243,52.0266667 346.02891,51.92 346.242243,51.92 C346.66891,51.92 347.202243,52.0266667 347.842243,52.24 C348.482243,52.4533333 348.90891,52.56 349.122243,52.56 C349.335576,52.56 349.54891,52.5066667 349.762243,52.4 L349.922243,52.33 C350.082243,52.27 350.242243,52.24 350.402243,52.24 C350.615576,52.24 350.935576,52.3466667 351.362243,52.56 C351.78891,52.7733333 352.215576,52.88 352.642243,52.88 C353.06891,52.88 353.86891,52.6666667 355.042243,52.24 C356.215576,51.8133333 357.122243,51.6 357.762243,51.6 C360.10891,51.6 361.282243,52.24 361.282243,53.52 C361.282243,53.9466667 361.06891,54.48 360.642243,55.12 C360.215576,55.76 360.002243,56.1866667 360.002243,56.4 C359.78891,56.6133333 359.78891,56.8266667 360.002243,57.04 L360.002243,57.04 L360.322243,57.36 C360.322243,58.2133333 359.78891,59.3866667 358.722243,60.88 L358.722243,60.88 L357.122243,62.8 C357.122243,63.6533333 356.74891,64.6666667 356.002243,65.84 C355.255576,67.0133333 354.882243,67.92 354.882243,68.56 C354.882243,68.7733333 354.935576,69.04 355.042243,69.36 C355.14891,69.68 355.202243,69.9466667 355.202243,70.16 C355.202243,70.5866667 354.98891,71.0133333 354.562243,71.44 L354.562243,71.44 L353.935304,72.0669388 C353.804692,72.197551 353.693672,72.3085714 353.602243,72.4 L353.602243,72.4 L353.922243,72.72 L354.562243,73.04 L352.642243,76.24 C351.14891,78.3733333 350.402243,79.5466667 350.402243,79.76 C347.62891,87.44 344.855576,92.6666667 342.082243,95.44 C341.86891,95.6533333 341.762243,95.9733333 341.762243,96.4 C341.762243,96.6133333 341.86891,96.88 342.082243,97.2 C342.295576,97.52 342.402243,97.7866667 342.402243,98 C342.402243,98.64 340.90891,102 337.922243,108.08 C336.063873,111.863111 334.659771,114.593146 333.709937,116.270104 L333.513354,116.613333 C333.03928,117.431111 332.695576,117.946667 332.482243,118.16 L332.482243,118.16 L329.602243,119.12 C329.175576,119.12 328.74891,119.013333 328.322243,118.8 C327.895576,118.586667 327.575576,118.48 327.362243,118.48 C326.935576,118.48 326.34891,118.853333 325.602243,119.6 C324.855576,120.346667 324.162243,120.72 323.522243,120.72 C323.30891,120.72 323.042243,120.666667 322.722243,120.56 C322.402243,120.453333 322.135576,120.4 321.922243,120.4 C321.495576,120.4 320.855576,120.826667 320.002243,121.68 C320.002243,122.533333 319.78891,122.96 319.362243,122.96 L319.362243,122.96 L319.042243,122.64 L319.362243,121.68 L318.402243,121.68 C317.762243,121.68 316.90891,121.946667 315.842243,122.48 C314.775576,123.013333 314.02891,123.28 313.602243,123.28 C313.38891,123.28 313.122243,123.226667 312.802243,123.12 C312.482243,123.013333 312.215576,122.96 312.002243,122.96 C311.78891,122.96 311.46891,123.173333 311.042243,123.6 C310.615576,124.026667 310.18891,124.24 309.762243,124.24 L309.762243,124.24 L309.122243,124.24 C308.90891,124.026667 308.695576,123.92 308.482243,123.92 C308.055576,123.92 307.362243,124.133333 306.402243,124.56 C305.442243,124.986667 304.642243,125.2 304.002243,125.2 C303.78891,125.2 303.522243,125.36 303.202243,125.68 C302.882243,126 302.615576,126.16 302.402243,126.16 L302.402243,126.16 L301.762243,126.16 C301.335576,125.946667 301.015576,125.84 300.802243,125.84 C300.162243,125.84 299.202243,126.106667 297.922243,126.64 C296.642243,127.173333 295.78891,127.44 295.362243,127.44 L295.362243,127.44 L294.722243,127.12 C294.295576,126.906667 293.975576,126.8 293.762243,126.8 C293.335576,127.013333 292.695576,127.6 291.842243,128.56 C290.98891,129.52 290.562243,130.106667 290.562243,130.32 C290.562243,130.746667 290.882243,130.96 291.522243,130.96 C294.295576,130.96 296.535576,130.106667 298.242243,128.4 C298.455576,128.4 298.66891,128.346667 298.882243,128.24 L299.042243,128.17 C299.202243,128.11 299.362243,128.08 299.522243,128.08 C299.522243,128.08 300.162243,128.506667 301.442243,129.36 C301.655576,129.36 301.922243,128.986667 302.242243,128.24 C302.562243,127.493333 302.935576,127.12 303.362243,127.12 C303.78891,127.12 304.26891,127.386667 304.802243,127.92 C305.335576,128.453333 305.815576,128.72 306.242243,128.72 L306.242243,128.72 L307.202243,128.08 C307.62891,127.866667 308.10891,127.6 308.642243,127.28 C309.175576,126.96 309.54891,126.8 309.762243,126.8 C310.615576,125.946667 311.255576,125.52 311.682243,125.52 C312.10891,125.52 312.535576,125.68 312.962243,126 C313.38891,126.32 313.70891,126.48 313.922243,126.48 C317.335576,126.48 320.10891,125.413333 322.242243,123.28 L322.242243,123.28 L322.562243,123.6 C322.98891,123.813333 323.30891,123.92 323.522243,123.92 L323.522243,123.92 L324.162243,123.92 C323.522243,122.64 323.842243,122 325.122243,122 L325.122243,122 L325.762243,122.32 C325.975576,122.746667 326.18891,122.96 326.402243,122.96 L326.402243,122.96 L327.042243,122.96 C327.255576,122.746667 327.46891,122.64 327.682243,122.64 C328.322243,122.64 328.642243,123.173333 328.642243,124.24 C328.642243,125.093333 327.14891,128.346667 324.162243,134 C321.175576,139.653333 317.975576,145.626667 314.562243,151.92 C311.14891,158.213333 309.122243,162.106667 308.482243,163.6 C308.482243,164.666667 307.842243,166.213333 306.562243,168.24 C305.282243,170.266667 304.74891,171.92 304.962243,173.2 C304.962243,173.413333 304.74891,173.52 304.322243,173.52 L304.322243,173.52 L303.362243,173.52 L303.362243,174.8 C301.442243,175.866667 299.94891,177.786667 298.882243,180.56 C298.882243,180.773333 298.562243,181.466667 297.922243,182.64 C297.282243,183.813333 296.855576,184.56 296.642243,184.88 C296.42891,185.2 296.055576,185.893333 295.522243,186.96 C294.98891,188.026667 294.455576,188.773333 293.922243,189.2 C293.38891,189.626667 292.802243,190.16 292.162243,190.8 C291.522243,191.44 290.82891,191.866667 290.082243,192.08 C289.335576,192.293333 288.535576,192.4 287.682243,192.4 C287.255576,192.4 286.82891,192.346667 286.402243,192.24 C285.975576,192.133333 285.655576,192.08 285.442243,192.08 C284.802243,192.08 283.78891,192.4 282.402243,193.04 C281.015576,193.68 279.895576,194 279.042243,194 C278.82891,194 278.50891,193.84 278.082243,193.52 C277.655576,193.2 277.335576,193.04 277.122243,193.04 C277.122243,193.253333 276.90891,193.36 276.482243,193.36 L276.482243,193.36 L275.522243,193.68 C275.30891,193.68 274.98891,193.52 274.562243,193.2 C274.135576,192.88 273.815576,192.72 273.602243,192.72 C273.175576,192.72 272.74891,192.88 272.322243,193.2 C271.895576,193.52 271.575576,193.68 271.362243,193.68 C271.14891,193.68 270.882243,193.626667 270.562243,193.52 C270.242243,193.413333 269.975576,193.36 269.762243,193.36 C268.482243,193.36 266.402243,193.733333 263.522243,194.48 C260.642243,195.226667 258.455576,195.6 256.962243,195.6 C256.74891,195.6 256.482243,195.44 256.162243,195.12 C255.842243,194.8 255.575576,194.64 255.362243,194.64 C254.935576,195.066667 254.615576,195.28 254.402243,195.28 L254.402243,195.28 L252.162243,195.28 C251.735576,195.28 251.255576,195.6 250.722243,196.24 C250.18891,196.88 249.70891,197.2 249.282243,197.2 C248.855576,197.2 248.42891,196.986667 248.002243,196.56 C247.78891,196.56 247.415576,196.666667 246.882243,196.88 C246.34891,197.093333 245.86891,197.306667 245.442243,197.52 C245.015576,197.733333 244.695576,197.84 244.482243,197.84 C244.26891,197.84 243.94891,197.733333 243.522243,197.52 C243.095576,197.306667 242.66891,197.2 242.242243,197.2 C241.38891,197.2 240.055576,197.573333 238.242243,198.32 C236.42891,199.066667 234.98891,199.44 233.922243,199.44 L233.922243,199.44 L230.722243,199.44 C230.295576,199.44 229.815576,199.333333 229.282243,199.12 C228.74891,198.906667 228.375576,198.8 228.162243,198.8 C227.522243,198.8 226.882243,199.12 226.242243,199.76 C225.602243,200.4 225.06891,200.72 224.642243,200.72 C224.42891,200.72 224.162243,200.453333 223.842243,199.92 C223.522243,199.386667 223.14891,199.12 222.722243,199.12 C222.295576,199.12 221.86891,199.333333 221.442243,199.76 C221.015576,200.186667 220.695576,200.4 220.482243,200.4 L220.482243,200.4 L215.362243,200.4 C214.50891,200.4 213.282243,200.826667 211.682243,201.68 C210.082243,202.533333 208.74891,202.96 207.682243,202.96 C207.46891,202.96 207.202243,202.906667 206.882243,202.8 C206.562243,202.693333 206.295576,202.64 206.082243,202.64 C205.015576,202.64 204.055576,202.746667 203.202243,202.96 C202.98891,202.96 202.722243,202.906667 202.402243,202.8 C202.082243,202.693333 201.815576,202.64 201.602243,202.64 C201.38891,202.64 201.015576,202.853333 200.482243,203.28 C199.94891,203.706667 199.46891,203.92 199.042243,203.92 C198.615576,203.92 198.18891,203.813333 197.762243,203.6 C197.335576,203.386667 196.90891,203.28 196.482243,203.28 C196.055576,203.28 194.882243,203.6 192.962243,204.24 C192.74891,204.453333 192.215576,204.56 191.362243,204.56 C189.86891,204.56 188.695576,204.453333 187.842243,204.24 L187.842243,204.24 L186.562243,205.52 C186.34891,205.52 185.975576,205.466667 185.442243,205.36 C184.90891,205.253333 184.535576,205.2 184.322243,205.2 L184.322243,205.2 L183.042243,205.2 L182.402243,205.84 C182.18891,206.053333 181.86891,206.16 181.442243,206.16 C181.22891,206.16 180.855576,206.106667 180.322243,206 C179.78891,205.893333 179.415576,205.84 179.202243,205.84 C178.562243,205.84 178.02891,206.053333 177.602243,206.48 C176.535576,206.48 175.255576,206.8 173.762243,207.44 C172.26891,208.08 171.095576,208.4 170.242243,208.4 C170.02891,208.4 169.70891,208.293333 169.282243,208.08 C168.855576,207.866667 168.42891,207.76 168.002243,207.76 L168.002243,207.76 L167.682243,208.08 C167.255576,208.293333 166.935576,208.4 166.722243,208.4 C166.50891,208.4 166.295576,208.293333 166.082243,208.08 C165.86891,207.866667 165.655576,207.76 165.442243,207.76 C164.58891,207.546667 163.202243,207.866667 161.282243,208.72 C159.362243,209.573333 158.082243,210.32 157.442243,210.96 C157.22891,210.96 157.015576,210.853333 156.802243,210.64 L156.802243,210.64 L156.162243,210.64 C154.66891,210.64 152.10891,211.493333 148.482243,213.2 C144.855576,214.906667 142.402243,215.76 141.122243,215.76 C140.90891,215.76 140.482243,215.653333 139.842243,215.44 C139.202243,215.226667 138.775576,215.12 138.562243,215.12 C138.135576,215.12 137.495576,215.386667 136.642243,215.92 C135.78891,216.453333 135.042243,216.72 134.402243,216.72 L134.402243,216.72 L134.082243,217.36 L133.762243,217.68 C133.122243,216.4 132.162243,215.76 130.882243,215.76 C130.455576,215.76 130.242243,215.973333 130.242243,216.4 C130.455576,216.613333 130.562243,216.933333 130.562243,217.36 C129.922243,217.573333 128.855576,218.106667 127.362243,218.96 C125.86891,219.813333 124.695576,220.24 123.842243,220.24 L123.842243,220.24 L123.522243,220.24 C123.095576,220.026667 122.775576,219.92 122.562243,219.92 C122.34891,219.92 117.335576,222.053333 107.522243,226.32 L107.522243,226.32 L105.602243,228.24 C104.962243,228.666667 103.682243,229.04 101.762243,229.36 C99.842243,229.68 98.562243,230.053333 97.922243,230.48 C95.7889097,231.973333 91.8955763,234.48 86.242243,238 C80.5889097,241.52 75.7889097,244.666667 71.842243,247.44 C67.8955763,250.213333 64.2155763,253.093333 60.802243,256.08 C60.3755763,256.293333 59.6289097,256.56 58.562243,256.88 C57.4955763,257.2 56.7489097,257.466667 56.322243,257.68 C55.2555763,258.106667 52.4289097,260.986667 47.842243,266.32 C43.2555763,271.653333 40.322243,274.64 39.042243,275.28 L39.042243,275.28 L36.162243,278.48 C35.9489097,279.12 35.6289097,279.6 35.202243,279.92 C34.7755763,280.24 34.402243,280.506667 34.082243,280.72 C33.762243,280.933333 33.442243,281.306667 33.122243,281.84 C32.802243,282.373333 32.642243,282.96 32.642243,283.6 C28.162243,289.146667 25.602243,292.453333 24.962243,293.52 C19.842243,298.213333 14.8289097,306.8 9.92224299,319.28 C5.01557632,331.76 2.13557632,342.053333 1.28224299,350.16 L1.28224299,350.16 L0.962242991,351.76 C0.962242991,351.973333 1.06890966,352.24 1.28224299,352.56 C1.49557632,352.88 1.60224299,353.146667 1.60224299,353.36 C1.60224299,353.786667 1.54890966,354.213333 1.44224299,354.64 C1.33557632,355.066667 1.28224299,355.386667 1.28224299,355.6 C1.28224299,355.813333 1.38890966,356.133333 1.60224299,356.56 C1.81557632,356.986667 1.92224299,357.306667 1.92224299,357.52 C1.92224299,357.946667 1.81557632,358.426667 1.60224299,358.96 C1.38890966,359.493333 1.28224299,359.866667 1.28224299,360.08 C1.28224299,360.506667 1.38890966,361.146667 1.60224299,362 C1.81557632,362.853333 1.92224299,363.493333 1.92224299,363.92 C1.92224299,364.773333 1.81557632,365.306667 1.60224299,365.52 C1.60224299,369.573333 3.20224299,374.586667 6.40224299,380.56 C9.38890966,383.973333 11.4155763,386.106667 12.482243,386.96 C15.2555763,389.946667 19.1489097,392.72 24.162243,395.28 C29.1755763,397.84 33.4955763,399.12 37.122243,399.12 C37.5489097,399.12 38.082243,399.066667 38.722243,398.96 C39.362243,398.853333 39.7889097,398.8 40.002243,398.8 C40.642243,398.8 41.3355763,398.96 42.082243,399.28 C42.8289097,399.6 43.4155763,399.76 43.842243,399.76 Z M335.042243,50.32 C334.82891,50.32 334.722243,50.2133333 334.722243,50 C334.935576,49.7866667 335.14891,49.68 335.362243,49.68 C335.362243,50.1066667 335.255576,50.32 335.042243,50.32 Z M377.922243,51.28 C376.855576,51.28 376.322243,50.8533333 376.322243,50 C377.38891,50 377.922243,50.4266667 377.922243,51.28 Z M342.402243,117.84 C341.335576,117.84 340.802243,117.306667 340.802243,116.24 C340.802243,116.026667 341.06891,115.76 341.602243,115.44 C342.135576,115.12 342.295576,114.64 342.082243,114 C342.295576,113.573333 342.66891,113.146667 343.202243,112.72 C343.735576,112.293333 344.002243,111.653333 344.002243,110.8 C344.855576,109.946667 346.02891,108.08 347.522243,105.2 C349.015576,102.32 349.762243,100.453333 349.762243,99.6 C350.18891,98.32 352.055576,94.5866667 355.362243,88.4 C358.66891,82.2133333 360.322243,78.3733333 360.322243,76.88 L360.322243,76.88 L360.322243,76.24 L360.002243,75.6 L360.962243,74.64 C361.815576,74 362.34891,73.5733333 362.562243,73.36 C362.135576,72.08 362.562243,70.5866667 363.842243,68.88 C365.122243,67.1733333 365.762243,65.8933333 365.762243,65.04 C365.762243,64.8266667 365.70891,64.56 365.602243,64.24 C365.495576,63.92 365.442243,63.6533333 365.442243,63.44 C365.442243,63.2266667 365.86891,62.64 366.722243,61.68 C367.575576,60.72 368.10891,60.1333333 368.322243,59.92 C369.38891,57.36 370.082243,55.8666667 370.402243,55.44 C370.722243,55.0133333 371.415576,54.5333333 372.482243,54 C373.54891,53.4666667 375.255576,53.2 377.602243,53.2 C377.815576,52.9866667 378.242243,52.88 378.882243,52.88 C379.30891,52.88 379.842243,52.9866667 380.482243,53.2 C381.122243,53.4133333 381.54891,53.52 381.762243,53.52 C381.975576,53.52 382.242243,53.4133333 382.562243,53.2 C382.882243,52.9866667 383.14891,52.88 383.362243,52.88 C383.78891,52.88 384.375576,53.04 385.122243,53.36 C385.86891,53.68 386.455576,53.84 386.882243,53.84 L386.882243,53.84 L387.202243,53.84 C387.62891,53.6266667 388.055576,53.52 388.482243,53.52 C388.482243,53.7333333 388.802243,53.84 389.442243,53.84 C391.14891,53.84 392.215576,53.7333333 392.642243,53.52 C392.855576,53.52 393.06891,53.5733333 393.282243,53.68 L393.442243,53.75 C393.602243,53.81 393.762243,53.84 393.922243,53.84 C394.34891,53.84 394.82891,53.6266667 395.362243,53.2 C395.895576,52.7733333 396.26891,52.56 396.482243,52.56 C396.695576,52.56 397.015576,52.6666667 397.442243,52.88 C397.86891,53.0933333 398.18891,53.2 398.402243,53.2 C398.615576,53.2 398.935576,53.1466667 399.362243,53.04 C399.78891,52.9333333 400.215576,52.88 400.642243,52.88 C401.06891,52.88 401.602243,53.0933333 402.242243,53.52 C402.882243,53.9466667 403.415576,54.16 403.842243,54.16 C404.055576,54.16 404.375576,54.0533333 404.802243,53.84 C405.22891,53.6266667 405.54891,53.52 405.762243,53.52 C406.18891,53.52 407.095576,53.7333333 408.482243,54.16 C409.86891,54.5866667 410.882243,54.6933333 411.522243,54.48 L411.522243,54.48 L414.402243,53.52 C414.615576,53.52 415.095576,53.6266667 415.842243,53.84 C416.58891,54.0533333 417.175576,54.16 417.602243,54.16 C417.815576,54.16 418.082243,54.1066667 418.402243,54 C418.722243,53.8933333 418.98891,53.84 419.202243,53.84 C419.842243,53.84 420.855576,54.0533333 422.242243,54.48 C423.62891,54.9066667 424.642243,55.12 425.282243,55.12 C425.495576,55.12 425.815576,55.0666667 426.242243,54.96 C426.66891,54.8533333 426.98891,54.8 427.202243,54.8 C428.055576,54.8 429.122243,55.44 430.402243,56.72 C430.615576,56.72 430.82891,56.4533333 431.042243,55.92 C431.255576,55.3866667 431.575576,55.12 432.002243,55.12 C432.855576,55.12 434.135576,55.3333333 435.842243,55.76 C437.54891,56.1866667 438.935576,56.4 440.002243,56.4 L440.002243,56.4 L440.642243,56.4 C441.282243,56.8266667 441.922243,57.04 442.562243,57.04 C442.775576,57.04 443.095576,56.9866667 443.522243,56.88 C443.94891,56.7733333 444.375576,56.72 444.802243,56.72 C445.655576,56.72 446.82891,57.0933333 448.322243,57.84 C449.815576,58.5866667 450.882243,58.96 451.522243,58.96 C451.735576,58.96 452.002243,58.8533333 452.322243,58.64 C452.642243,58.4266667 452.90891,58.32 453.122243,58.32 C453.762243,58.32 454.402243,58.7466667 455.042243,59.6 C456.10891,59.6 457.975576,59.8666667 460.642243,60.4 C463.30891,60.9333333 465.38891,61.2 466.882243,61.2 C471.14891,61.2 475.415576,61.9466667 479.682243,63.44 L479.682243,63.44 L481.922243,63.44 C482.135576,63.6533333 483.30891,63.9733333 485.442243,64.4 C487.575576,64.8266667 489.442243,65.4133333 491.042243,66.16 C492.642243,66.9066667 493.442243,67.7066667 493.442243,68.56 C493.22891,70.0533333 490.34891,72.4 484.802243,75.6 C479.255576,78.8 475.522243,80.4 473.602243,80.4 L473.602243,80.4 L472.962243,80.08 C472.74891,80.08 472.535576,80.1866667 472.322243,80.4 C471.255576,81.68 469.54891,82.7466667 467.202243,83.6 L467.202243,83.6 L466.562243,83.28 L465.922243,82.64 C465.70891,82.64 465.495576,82.7466667 465.282243,82.96 L465.282243,82.96 L463.042243,85.2 C462.82891,85.4133333 461.86891,85.84 460.162243,86.48 C458.455576,87.12 457.495576,87.44 457.282243,87.44 C457.06891,87.44 456.74891,87.3333333 456.322243,87.12 L456.322243,87.12 L455.682243,86.8 C455.255576,86.8 454.402243,87.44 453.122243,88.72 C451.842243,89.36 448.642243,90.5333333 443.522243,92.24 C438.402243,93.9466667 435.30891,94.8 434.242243,94.8 C433.815576,94.8 433.38891,94.6933333 432.962243,94.48 C432.535576,94.2666667 432.215576,94.16 432.002243,94.16 C431.362243,94.16 430.562243,94.48 429.602243,95.12 C428.642243,95.76 427.94891,96.08 427.522243,96.08 C427.30891,95.8666667 426.66891,95.76 425.602243,95.76 C418.34891,98.1066667 414.722243,99.6 414.722243,100.24 L414.722243,100.24 L415.362243,100.56 C415.575576,100.773333 415.682243,100.986667 415.682243,101.2 C415.682243,101.84 415.255576,102.16 414.402243,102.16 C413.762243,102.16 412.802243,101.893333 411.522243,101.36 C410.242243,100.826667 409.282243,100.56 408.642243,100.56 C407.575576,100.56 406.18891,100.773333 404.482243,101.2 C402.775576,101.626667 401.38891,101.84 400.322243,101.84 L400.322243,101.84 L399.042243,102.48 C398.82891,102.693333 398.50891,102.8 398.082243,102.8 C397.655576,102.8 397.22891,102.746667 396.802243,102.64 L396.482243,102.57 C396.162243,102.51 395.842243,102.48 395.522243,102.48 C394.02891,102.48 391.575576,103.013333 388.162243,104.08 C384.74891,105.146667 382.50891,105.786667 381.442243,106 C381.015576,106.213333 380.58891,106.586667 380.162243,107.12 C379.735576,107.653333 379.415576,107.92 379.202243,107.92 C378.98891,107.92 378.615576,107.813333 378.082243,107.6 C377.54891,107.386667 377.06891,107.28 376.642243,107.28 C375.362243,107.28 374.02891,108.026667 372.642243,109.52 C371.255576,111.013333 370.02891,111.76 368.962243,111.76 C368.322243,111.76 367.78891,111.546667 367.362243,111.12 L367.362243,111.12 L365.762243,111.12 C363.62891,111.12 362.135576,111.653333 361.282243,112.72 C360.855576,112.72 360.482243,112.506667 360.162243,112.08 C359.842243,111.653333 359.575576,111.44 359.362243,111.44 C358.722243,111.44 357.975576,111.706667 357.122243,112.24 C356.26891,112.773333 355.522243,113.36 354.882243,114 L354.882243,114 L353.922243,114.64 C353.70891,114.64 353.38891,114.426667 352.962243,114 L352.962243,114 L352.002243,114 C351.575576,114 350.295576,114.533333 348.162243,115.6 C347.30891,115.6 346.242243,115.973333 344.962243,116.72 C343.682243,117.466667 342.82891,117.84 342.402243,117.84 Z M461.442243,58.96 L461.442243,58.64 L461.122243,58.32 C461.54891,58.32 461.762243,58.4266667 461.762243,58.64 L461.762243,58.64 L461.442243,58.96 Z M386.882243,107.28 C386.882243,106.64 387.30891,106.32 388.162243,106.32 C388.162243,106.96 387.735576,107.28 386.882243,107.28 Z M361.602243,114.32 C361.602243,113.893333 361.922243,113.68 362.562243,113.68 C362.562243,114.106667 362.242243,114.32 361.602243,114.32 Z M339.842243,114.96 L339.522243,114.96 L339.522243,114.64 L339.842243,114.64 L339.842243,114.96 Z M263.362243,139.28 C264.642243,139.28 266.562243,138.64 269.122243,137.36 C271.682243,136.08 273.495576,135.44 274.562243,135.44 C274.775576,135.44 275.095576,135.546667 275.522243,135.76 L275.522243,135.76 L276.162243,135.76 C276.58891,135.76 277.175576,135.653333 277.922243,135.44 C278.66891,135.226667 279.255576,135.12 279.682243,135.12 L279.682243,135.12 L280.322243,135.12 C280.74891,135.333333 281.06891,135.44 281.282243,135.44 C287.042243,135.44 289.922243,134.16 289.922243,131.6 C289.922243,130.96 289.38891,130.64 288.322243,130.64 C288.10891,130.64 287.78891,130.8 287.362243,131.12 C286.935576,131.44 286.615576,131.6 286.402243,131.6 L286.402243,131.6 L285.442243,131.6 C285.22891,131.386667 285.015576,131.28 284.802243,131.28 C284.58891,131.28 284.26891,131.6 283.842243,132.24 C283.415576,132.88 282.98891,133.2 282.562243,133.2 C282.135576,133.2 281.762243,132.986667 281.442243,132.56 C281.122243,132.133333 280.855576,131.92 280.642243,131.92 L280.642243,131.92 L279.682243,131.92 C278.82891,131.706667 278.295576,131.6 278.082243,131.6 C277.22891,131.6 276.215576,131.973333 275.042243,132.72 C273.86891,133.466667 272.962243,133.84 272.322243,133.84 C272.10891,133.84 271.78891,133.786667 271.362243,133.68 C270.935576,133.573333 270.615576,133.52 270.402243,133.52 C269.762243,133.52 268.802243,134.106667 267.522243,135.28 C266.242243,136.453333 265.175576,137.04 264.322243,137.04 C263.682243,137.04 263.14891,136.826667 262.722243,136.4 C261.22891,136.4 260.26891,136.293333 259.842243,136.08 C259.415576,136.08 259.202243,136.293333 259.202243,136.72 C259.202243,136.933333 259.78891,137.413333 260.962243,138.16 C262.135576,138.906667 262.935576,139.28 263.362243,139.28 Z M221.442243,151.76 C221.655576,151.76 222.295576,151.386667 223.362243,150.64 C224.42891,149.893333 225.282243,149.52 225.922243,149.52 L225.922243,149.52 L226.562243,149.84 L227.202243,149.84 C229.762243,149.84 233.335576,148.346667 237.922243,145.36 C242.50891,142.373333 245.975576,140.88 248.322243,140.88 C248.74891,140.88 249.175576,141.093333 249.602243,141.52 C250.02891,141.946667 250.34891,142.16 250.562243,142.16 C251.62891,142.16 253.06891,141.786667 254.882243,141.04 C256.695576,140.293333 257.495576,139.386667 257.282243,138.32 L257.282243,138.32 L256.002243,138.32 L255.362243,138.64 C255.14891,138.853333 254.295576,138.96 252.802243,138.96 L252.802243,138.96 L252.162243,138.96 L251.522243,138.64 C251.30891,138.64 250.98891,138.746667 250.562243,138.96 C250.135576,139.173333 249.815576,139.28 249.602243,139.28 C249.38891,139.28 249.122243,139.226667 248.802243,139.12 C248.482243,139.013333 248.215576,138.96 248.002243,138.96 C247.78891,138.96 247.362243,139.173333 246.722243,139.6 C246.082243,140.026667 245.54891,140.24 245.122243,140.24 L245.122243,140.24 L241.922243,140.24 C241.70891,140.24 241.335576,140.453333 240.802243,140.88 C240.26891,141.306667 239.78891,141.626667 239.362243,141.84 C238.935576,142.053333 238.615576,142.16 238.402243,142.16 C238.18891,142.373333 236.10891,143.546667 232.162243,145.68 C228.215576,147.813333 226.135576,148.88 225.922243,148.88 C225.06891,148.88 224.535576,148.56 224.322243,147.92 L224.322243,147.92 L224.002243,147.92 L222.402243,149.2 L219.202243,149.52 C218.775576,149.733333 218.562243,150.16 218.562243,150.8 C218.562243,151.44 219.095576,151.76 220.162243,151.76 L220.162243,151.76 L221.442243,151.76 Z M214.722243,152.72 C215.575576,152.72 216.002243,152.293333 216.002243,151.44 C215.14891,151.44 214.722243,151.653333 214.722243,152.08 L214.722243,152.08 L214.722243,152.72 Z M203.202243,155.6 C203.842243,155.6 204.695576,155.333333 205.762243,154.8 C206.82891,154.266667 207.362243,153.786667 207.362243,153.36 C207.362243,152.933333 207.042243,152.72 206.402243,152.72 C205.762243,152.72 205.06891,153.093333 204.322243,153.84 C203.575576,154.586667 202.98891,154.96 202.562243,154.96 L202.562243,154.96 L202.882243,155.28 C202.882243,155.493333 202.98891,155.6 203.202243,155.6 Z M194.882243,157.84 C195.30891,157.84 196.055576,157.68 197.122243,157.36 C198.18891,157.04 199.042243,156.88 199.682243,156.88 L199.682243,156.88 L200.322243,156.88 C200.74891,156.666667 201.282243,156.24 201.922243,155.6 C201.282243,155.386667 200.215576,155.28 198.722243,155.28 C198.50891,155.066667 198.18891,154.96 197.762243,154.96 C197.54891,154.96 197.282243,155.066667 196.962243,155.28 C196.642243,155.493333 196.375576,155.6 196.162243,155.6 C195.94891,155.386667 195.62891,155.28 195.202243,155.28 C194.135576,155.28 193.602243,155.92 193.602243,157.2 C193.602243,157.626667 194.02891,157.84 194.882243,157.84 Z M174.402243,163.6 C174.615576,163.6 174.82891,163.386667 175.042243,162.96 L175.042243,162.96 L174.082243,162.96 C173.86891,163.386667 173.975576,163.6 174.402243,163.6 Z M344.962243,194 C344.10891,194 343.682243,193.573333 343.682243,192.72 L343.682243,192.72 L344.002243,192.08 C344.215576,192.08 344.58891,192.133333 345.122243,192.24 C345.655576,192.346667 346.02891,192.4 346.242243,192.4 L346.242243,192.4 L346.242243,192.72 L344.962243,194 Z M335.042243,193.36 C334.615576,193.36 334.402243,193.146667 334.402243,192.72 L334.402243,192.72 L334.722243,192.4 C334.935576,192.4 335.042243,192.72 335.042243,193.36 Z M330.562243,195.6 C330.135576,195.6 329.922243,195.28 329.922243,194.64 C330.562243,194.64 330.882243,194.853333 330.882243,195.28 L330.882243,195.28 L330.562243,195.6 Z M284.802243,195.92 C284.375576,195.92 284.162243,195.706667 284.162243,195.28 C284.58891,195.066667 284.90891,194.96 285.122243,194.96 C285.54891,194.96 285.762243,195.173333 285.762243,195.6 C285.762243,195.813333 285.442243,195.92 284.802243,195.92 Z M256.962243,198.16 L256.322243,197.52 C256.322243,197.306667 256.535576,197.2 256.962243,197.2 L256.962243,197.2 L257.282243,197.84 L256.962243,198.16 L256.962243,198.16 Z M41.282243,394 C40.8555763,394 40.162243,393.626667 39.202243,392.88 C38.242243,392.133333 37.442243,391.76 36.802243,391.76 C36.3755763,391.76 36.0555763,391.866667 35.842243,392.08 C35.6289097,392.293333 35.3089097,392.4 34.882243,392.4 C33.602243,392.4 31.8955763,391.653333 29.762243,390.16 C27.6289097,388.666667 25.8155763,387.92 24.322243,387.92 C23.8955763,387.28 22.9355763,386.64 21.442243,386 C19.9489097,385.36 18.9889097,384.826667 18.562243,384.4 L18.562243,384.4 L16.322243,382.16 C11.202243,376.826667 8.64224299,370.426667 8.64224299,362.96 C8.64224299,362.533333 8.48224299,362.16 8.16224299,361.84 C7.84224299,361.52 7.68224299,361.253333 7.68224299,361.04 C7.68224299,360.826667 7.78890966,360.4 8.00224299,359.76 L8.00224299,359.76 L8.00224299,359.12 C8.00224299,358.906667 7.84224299,358.426667 7.52224299,357.68 C7.20224299,356.933333 7.04224299,356.346667 7.04224299,355.92 C7.04224299,355.493333 7.30890966,354.906667 7.84224299,354.16 C8.37557632,353.413333 8.64224299,352.826667 8.64224299,352.4 C8.64224299,352.186667 8.42890966,351.813333 8.00224299,351.28 C7.57557632,350.746667 7.36224299,350.266667 7.36224299,349.84 C7.36224299,349.2 7.73557632,348.453333 8.48224299,347.6 C9.22890966,346.746667 9.60224299,346.106667 9.60224299,345.68 C9.38890966,345.253333 9.28224299,344.933333 9.28224299,344.72 C9.28224299,343.653333 9.60224299,343.013333 10.242243,342.8 L10.242243,342.8 L10.242243,342.16 C10.242243,341.946667 10.1889097,341.733333 10.082243,341.52 L10.012243,341.36 C9.95224299,341.2 9.92224299,341.04 9.92224299,340.88 C10.1355763,340.026667 10.882243,338.533333 12.162243,336.4 L12.162243,336.4 L12.162243,335.76 C12.162243,335.546667 12.1089097,335.28 12.002243,334.96 C11.8955763,334.64 11.842243,334.266667 11.842243,333.84 C12.2689097,330.426667 13.8155763,326.213333 16.482243,321.2 C19.1489097,316.186667 22.2955763,310.746667 25.922243,304.88 C29.5489097,299.013333 31.8955763,295.12 32.962243,293.2 C33.1755763,292.773333 33.8689097,292.293333 35.042243,291.76 C36.2155763,291.226667 36.802243,290.533333 36.802243,289.68 C36.802243,289.466667 36.7489097,289.253333 36.642243,289.04 L36.572243,288.88 C36.512243,288.72 36.482243,288.56 36.482243,288.4 C37.9755763,288.186667 39.3089097,287.44 40.482243,286.16 C41.6555763,284.88 42.882243,282.96 44.162243,280.4 C45.442243,277.84 46.082243,276.453333 46.082243,276.24 C46.082243,276.026667 48.5355763,274.746667 53.442243,272.4 C58.1355763,267.28 61.2289097,264.08 62.722243,262.8 C66.7755763,259.386667 75.682243,253.306667 89.442243,244.56 C103.202243,235.813333 111.255576,231.546667 113.602243,231.76 C113.602243,231.973333 113.815576,232.08 114.242243,232.08 C114.242243,232.293333 114.455576,232.4 114.882243,232.4 C115.095576,232.4 117.122243,231.44 120.962243,229.52 C124.802243,227.6 127.575576,226.746667 129.282243,226.96 C132.26891,223.973333 134.18891,222.48 135.042243,222.48 C135.46891,222.48 135.895576,222.64 136.322243,222.96 C136.74891,223.28 137.175576,223.44 137.602243,223.44 L137.602243,223.44 L152.642243,218.96 L155.202243,218.32 L155.202243,218.32 L156.162243,218.32 L156.802243,218.64 C157.442243,218.64 158.295576,218.32 159.362243,217.68 C160.42891,217.04 161.175576,216.72 161.602243,216.72 C161.815576,216.72 162.135576,216.826667 162.562243,217.04 L162.562243,217.04 L162.882243,217.04 C163.522243,217.04 164.42891,216.506667 165.602243,215.44 C166.775576,214.373333 167.78891,213.84 168.642243,213.84 C168.855576,213.84 169.22891,214.106667 169.762243,214.64 C170.295576,215.173333 170.775576,215.44 171.202243,215.44 C171.62891,215.44 172.10891,215.12 172.642243,214.48 C173.175576,213.84 173.86891,213.52 174.722243,213.52 C175.14891,213.52 176.002243,213.573333 177.282243,213.68 C178.562243,213.786667 179.522243,213.84 180.162243,213.84 C186.562243,212.56 189.975576,211.92 190.402243,211.92 C190.615576,211.92 190.882243,211.973333 191.202243,212.08 C191.522243,212.186667 191.78891,212.24 192.002243,212.24 C192.42891,212.24 192.855576,212.026667 193.282243,211.6 C193.70891,211.173333 194.02891,210.96 194.242243,210.96 L194.242243,210.96 L199.362243,210.96 C201.70891,210.96 203.522243,210.32 204.802243,209.04 L204.802243,209.04 L205.442243,209.04 C205.86891,209.04 206.615576,209.2 207.682243,209.52 C208.74891,209.84 209.602243,210 210.242243,210 C211.30891,210 212.695576,209.466667 214.402243,208.4 C216.10891,207.333333 217.495576,206.8 218.562243,206.8 C218.775576,206.8 219.095576,206.906667 219.522243,207.12 C219.94891,207.333333 220.26891,207.44 220.482243,207.44 C220.695576,207.44 221.015576,207.333333 221.442243,207.12 C221.86891,206.906667 222.18891,206.8 222.402243,206.8 C222.615576,206.8 222.935576,206.906667 223.362243,207.12 C223.78891,207.333333 224.10891,207.44 224.322243,207.44 C225.38891,207.44 226.882243,207.173333 228.802243,206.64 C230.722243,206.106667 232.10891,205.84 232.962243,205.84 L232.962243,205.84 L233.602243,206.16 L234.242243,206.16 C234.66891,206.16 235.415576,206 236.482243,205.68 C237.54891,205.36 238.295576,205.2 238.722243,205.2 L238.722243,205.2 L239.362243,205.52 C239.78891,205.733333 240.10891,205.84 240.322243,205.84 C240.535576,205.84 240.855576,205.626667 241.282243,205.2 C241.70891,204.773333 242.135576,204.56 242.562243,204.56 C242.775576,204.56 243.042243,204.666667 243.362243,204.88 C243.682243,205.093333 243.94891,205.2 244.162243,205.2 C245.015576,205.2 246.082243,204.613333 247.362243,203.44 C248.642243,202.266667 249.495576,201.68 249.922243,201.68 C250.34891,201.68 250.935576,202 251.682243,202.64 C252.42891,203.28 253.015576,203.6 253.442243,203.6 C253.86891,203.6 254.295576,203.386667 254.722243,202.96 C255.14891,202.533333 255.575576,202.32 256.002243,202.32 L256.002243,202.32 L258.882243,202.32 C259.095576,202.106667 259.682243,201.893333 260.642243,201.68 C261.602243,201.466667 262.18891,201.36 262.402243,201.36 C266.455576,201.36 270.082243,200.933333 273.282243,200.08 L273.282243,200.08 L276.802243,200.08 C277.22891,200.293333 277.655576,200.4 278.082243,200.4 C279.14891,200.4 280.642243,200.026667 282.562243,199.28 C284.482243,198.533333 285.762243,198.16 286.402243,198.16 C287.255576,198.16 287.682243,198.373333 287.682243,198.8 C287.682243,199.866667 287.042243,201.413333 285.762243,203.44 C284.482243,205.466667 283.735576,206.693333 283.522243,207.12 C282.455576,208.186667 279.842243,212.346667 275.682243,219.6 C271.522243,226.853333 269.015576,230.8 268.162243,231.44 C265.815576,233.146667 257.602243,244.133333 243.522243,264.4 C243.30891,264.613333 242.66891,264.933333 241.602243,265.36 C240.535576,265.786667 239.895576,266.32 239.682243,266.96 C232.642243,276.133333 225.38891,284.133333 217.922243,290.96 C217.06891,291.173333 216.42891,291.76 216.002243,292.72 C215.575576,293.68 215.042243,294.373333 214.402243,294.8 L214.402243,294.8 L209.922243,299.6 L206.722243,302.16 C204.802243,304.08 203.255576,305.68 202.082243,306.96 C200.90891,308.24 200.322243,309.306667 200.322243,310.16 C200.74891,310.586667 200.962243,310.906667 200.962243,311.12 L200.962243,311.12 L200.642243,311.44 C200.42891,311.44 200.162243,311.28 199.842243,310.96 C199.522243,310.64 199.14891,310.48 198.722243,310.48 C198.50891,310.48 197.70891,311.173333 196.322243,312.56 C194.935576,313.946667 193.495576,315.44 192.002243,317.04 C190.50891,318.64 189.54891,319.653333 189.122243,320.08 C188.695576,322.213333 186.402243,324.56 182.242243,327.12 C178.082243,329.68 175.575576,331.813333 174.722243,333.52 C173.86891,333.946667 173.015576,334.533333 172.162243,335.28 C171.30891,336.026667 170.615576,336.666667 170.082243,337.2 C169.54891,337.733333 169.06891,338.32 168.642243,338.96 L168.642243,338.96 L168.002243,339.92 L166.722243,339.92 C166.50891,339.92 165.975576,340.133333 165.122243,340.56 L165.122243,340.56 L160.322243,343.76 L156.802243,347.28 C154.882243,347.066667 152.74891,348.346667 150.402243,351.12 C149.762243,351.12 149.122243,351.546667 148.482243,352.4 L148.482243,352.4 L146.562243,354.96 L145.922243,356.24 C145.495576,356.24 145.06891,356.133333 144.642243,355.92 C144.215576,355.706667 143.895576,355.6 143.682243,355.6 C143.042243,355.6 142.295576,356.24 141.442243,357.52 C140.58891,358.8 139.94891,359.44 139.522243,359.44 L139.522243,359.44 L136.962243,359.44 C135.895576,359.44 134.82891,360.186667 133.762243,361.68 L133.762243,361.68 L132.162243,364.24 C131.30891,364.666667 129.762243,365.253333 127.522243,366 C125.282243,366.746667 123.62891,367.973333 122.562243,369.68 C121.495576,370.96 118.935576,372.293333 114.882243,373.68 C110.82891,375.066667 108.162243,376.293333 106.882243,377.36 C106.66891,377.36 106.402243,377.253333 106.082243,377.04 C105.762243,376.826667 105.495576,376.72 105.282243,376.72 C104.42891,376.72 104.002243,377.04 104.002243,377.68 L104.002243,377.68 L104.322243,378 C102.18891,378 98.8289097,379.333333 94.242243,382 C89.6555763,384.666667 86.402243,386.213333 84.482243,386.64 L84.482243,386.64 L81.922243,388.24 C81.7089097,388.24 81.1755763,388.453333 80.322243,388.88 L80.322243,388.88 L79.042243,389.52 L78.722243,389.2 L78.722243,389.2 L77.762243,389.2 C77.5489097,389.2 77.282243,389.413333 76.962243,389.84 C76.642243,390.266667 76.3755763,390.48 76.162243,390.48 L76.162243,390.48 L73.922243,390.48 C73.282243,391.76 72.1089097,392.4 70.402243,392.4 C70.1889097,392.4 69.922243,392.24 69.602243,391.92 C69.282243,391.6 69.0155763,391.44 68.802243,391.44 C68.5889097,391.44 68.162243,391.546667 67.522243,391.76 C66.882243,391.973333 66.4555763,392.186667 66.242243,392.4 C66.0289097,392.4 65.762243,392.346667 65.442243,392.24 C65.122243,392.133333 64.8555763,392.08 64.642243,392.08 C62.9355763,392.08 61.5489097,392.4 60.482243,393.04 L60.482243,393.04 L56.962243,393.04 L56.322243,392.72 L53.762243,392.72 C53.3355763,392.72 52.9089097,392.933333 52.482243,393.36 L52.482243,393.36 L51.522243,393.36 C50.882243,393.36 50.0289097,393.2 48.962243,392.88 C47.8955763,392.56 47.1489097,392.4 46.722243,392.4 C46.5089097,392.4 46.242243,392.506667 45.922243,392.72 C45.602243,392.933333 45.3355763,393.04 45.122243,393.04 L45.122243,393.04 L43.842243,392.72 C43.4155763,392.72 42.562243,393.146667 41.282243,394 Z M240.962243,201.36 C240.322243,201.36 240.002243,201.146667 240.002243,200.72 C240.215576,200.506667 240.42891,200.4 240.642243,200.4 C241.06891,200.4 241.282243,200.506667 241.282243,200.72 C241.282243,201.146667 241.175576,201.36 240.962243,201.36 Z M287.362243,207.76 L286.082243,207.76 C286.082243,206.906667 286.295576,206.48 286.722243,206.48 C287.14891,206.48 287.362243,206.906667 287.362243,207.76 L287.362243,207.76 Z M185.922243,210.32 L185.282243,209.68 C185.282243,209.04 185.495576,208.72 185.922243,208.72 C186.34891,208.72 186.562243,208.933333 186.562243,209.36 C186.562243,210 186.34891,210.32 185.922243,210.32 L185.922243,210.32 Z M184.322243,211.28 C183.895576,211.28 183.682243,211.066667 183.682243,210.64 C183.682243,210.213333 183.895576,210 184.322243,210 L184.322243,210 L184.962243,210 L184.962243,210.96 C184.962243,211.173333 184.74891,211.28 184.322243,211.28 Z M110.722243,229.52 C110.082243,229.52 109.762243,229.2 109.762243,228.56 C109.762243,228.346667 110.082243,228.24 110.722243,228.24 L110.722243,228.24 L110.722243,229.52 Z M107.202243,233.04 C106.562243,233.04 106.135576,232.826667 105.922243,232.4 L105.922243,232.4 L106.562243,232.08 C106.98891,232.08 107.202243,232.4 107.202243,233.04 Z M263.682243,244.24 C263.46891,244.24 263.362243,244.133333 263.362243,243.92 C263.362243,243.706667 263.46891,243.6 263.682243,243.6 L263.682243,243.6 L263.682243,244.24 Z M81.282243,247.12 L80.322243,245.84 C80.322243,245.626667 80.5355763,245.52 80.962243,245.52 C81.8155763,245.52 82.242243,245.626667 82.242243,245.84 C82.242243,246.693333 81.922243,247.12 81.282243,247.12 L81.282243,247.12 Z M70.722243,252.88 C70.722243,252.026667 71.2555763,251.6 72.322243,251.6 C72.322243,252.453333 71.7889097,252.88 70.722243,252.88 Z M41.602243,280.08 L41.282243,279.44 C41.282243,279.226667 41.3889097,279.013333 41.602243,278.8 C42.242243,278.8 42.562243,279.013333 42.562243,279.44 C42.562243,279.866667 42.242243,280.08 41.602243,280.08 L41.602243,280.08 Z M16.002243,314.32 C16.002243,312.826667 16.642243,312.08 17.922243,312.08 C18.1355763,312.08 18.242243,312.186667 18.242243,312.4 C18.242243,313.68 17.4955763,314.32 16.002243,314.32 Z M177.282243,336.08 C176.855576,335.013333 176.322243,334.48 175.682243,334.48 C175.895576,334.48 176.26891,334.213333 176.802243,333.68 C177.335576,333.146667 177.815576,332.88 178.242243,332.88 C178.242243,333.093333 178.082243,333.36 177.762243,333.68 C177.442243,334 177.282243,334.266667 177.282243,334.48 L177.282243,334.48 L177.282243,335.12 L177.602243,335.44 C177.602243,335.866667 177.495576,336.08 177.282243,336.08 Z M169.602243,341.2 L169.602243,340.88 C169.815576,340.453333 170.135576,340.133333 170.562243,339.92 C170.562243,340.773333 170.242243,341.2 169.602243,341.2 L169.602243,341.2 Z M134.402243,362.64 C134.402243,362.213333 134.722243,362 135.362243,362 C135.362243,362.426667 135.042243,362.64 134.402243,362.64 Z M101.762243,380.88 C101.335576,380.88 101.122243,380.666667 101.122243,380.24 C101.54891,380.24 101.762243,380.453333 101.762243,380.88 Z M95.682243,384.08 C95.682243,383.653333 95.8955763,383.44 96.322243,383.44 C96.322243,383.866667 96.1089097,384.08 95.682243,384.08 Z M14.402243,384.72 L14.402243,384.4 L15.042243,384.08 C15.042243,384.506667 14.8289097,384.72 14.402243,384.72 L14.402243,384.72 Z M18.882243,386.96 C18.4555763,386.96 18.242243,386.853333 18.242243,386.64 C18.242243,386.213333 18.4555763,386 18.882243,386 C19.3089097,386 19.522243,386.213333 19.522243,386.64 C19.522243,386.853333 19.3089097,386.96 18.882243,386.96 Z M26.562243,393.36 C26.7755763,393.146667 27.042243,392.56 27.362243,391.6 C27.682243,390.64 28.0555763,390.16 28.482243,390.16 C28.9089097,390.373333 29.122243,390.693333 29.122243,391.12 C29.122243,392.613333 28.2689097,393.36 26.562243,393.36 Z M79.042243,391.12 L80.002243,390.48 C80.002243,390.906667 79.682243,391.12 79.042243,391.12 L79.042243,391.12 Z M33.602243,395.28 C32.5355763,395.28 32.002243,394.853333 32.002243,394 C32.002243,393.36 32.4289097,393.04 33.282243,393.04 L33.282243,393.04 L33.602243,393.68 L33.602243,395.28 Z M58.882243,394.64 C58.0289097,394.64 57.602243,394.426667 57.602243,394 C58.4555763,394 58.882243,394.213333 58.882243,394.64 Z" id="J" fill="#000000" fill-rule="nonzero"></path>
    </g>
</svg>